<?xml version="1.0" encoding="UTF-8" standalone="no"?>
<!-- Created with Inkscape (http://www.inkscape.org/) -->

<svg
   width="300mm"
   height="300mm"
   viewBox="0 0 300 300"
   version="1.1"
   id="svg1"
   xml:space="preserve"
   xmlns="http://www.w3.org/2000/svg"
   xmlns:svg="http://www.w3.org/2000/svg"><defs
     id="defs1" /><g
     id="layer1"><path
       style="fill:#f3f3f3;fill-opacity:1;stroke:none;stroke-width:1.44609"
       d="m 40.730462,163.14396 c 10.820486,-0.001 20.682495,-0.94227 31.374072,1.86878 14.238164,3.74353 26.816034,11.43827 40.556726,16.47617 17.88702,6.55812 37.13857,8.48818 55.86115,4.61051 14.20007,-2.94103 24.74765,-8.93926 35.9654,-17.86107 2.68336,-2.13415 6.19927,-2.61214 8.5866,0.30233 3.96633,4.84208 -1.65172,9.26391 -5.14311,12.10358 -9.15638,7.44722 -20.04271,12.28187 -31.37407,15.34635 -21.13471,5.71576 -43.71632,4.43295 -64.27858,-2.88522 -11.67917,-4.15667 -22.501715,-10.26934 -34.052345,-14.72935 -8.959883,-3.45963 -18.023521,-4.53426 -27.547965,-4.51898 -2.076103,0.003 -8.150695,-0.31725 -9.554636,1.43154 -1.072554,1.33599 -0.393242,4.96823 -0.393242,6.60329 0,5.89132 0.101154,11.7318 0.367555,17.60008 1.022923,22.5333 9.75395,44.03418 23.738387,61.60031 5.193406,6.52353 12.748752,11.39336 17.598617,17.9827 -4.453021,-1.31625 -10.282263,-0.3826 -14.921814,-0.3826 -9.492698,0 -19.228251,-0.62992 -28.695797,0.0343 -4.051939,0.28427 -8.252337,4.58232 -4.078526,8.13345 2.866842,2.43914 10.443479,1.01498 14.026402,1.01498 H 87.408959 213.67046 243.8967 c 3.11785,0 8.48271,1.04134 10.262,-2.31221 4.38626,-8.26708 -11.03826,-6.87045 -14.85333,-6.87045 H 182.679 v -0.38262 c 6.2542,-2.91245 11.83144,-10.41098 16.06937,-15.68703 1.63845,-2.03979 3.50347,-5.58713 5.80586,-6.87637 1.58972,-0.89017 4.28993,-0.39324 6.05534,-0.39324 4.23892,0 8.41532,0.0455 12.62615,-0.49184 13.9791,-1.7842 26.7629,-8.9454 34.92443,-20.55174 14.82136,-21.07711 11.24163,-53.16084 -12.733,-66.07324 -6.90138,-3.717 -14.80798,-5.0915 -22.57403,-5.09234 v -11.47832 c 0,-1.26486 0.37543,-3.37154 -0.61348,-4.36046 -0.92815,-0.92816 -2.79142,-0.6134 -3.97785,-0.61347 -3.57847,-2.3e-4 -7.56013,-0.49323 -11.09571,0.0567 -2.2226,0.34571 -3.85717,2.65276 -5.35654,4.15205 -3.1005,3.1003 -6.354,6.00127 -9.94788,8.5243 -9.90797,6.95574 -20.94274,10.83864 -32.90451,12.41154 -13.00423,1.70995 -26.66669,-0.0596 -39.02629,-4.36696 -15.4756,-5.3934 -29.54526,-14.15138 -45.530662,-18.14773 -8.148317,-2.03709 -16.124677,-2.62987 -24.48708,-2.62987 -2.074596,0 -6.87967,-0.887 -8.569181,0.45111 -1.02057,0.8083 -0.613475,3.0037 -0.613475,4.14022 v 11.86092 m 18.365311,19.63951 c 3.116383,-0.54748 6.240542,1.37618 7.056158,4.46497 1.248085,4.7266 0.52282,10.07401 1.042138,14.92181 0.680054,6.34822 2.50007,12.46065 3.404823,18.74792 0.453977,3.15472 -0.791282,6.71156 -4.233517,7.50136 -5.224232,1.19868 -7.348277,-3.30324 -8.367833,-7.50136 -2.20328,-9.07215 -3.641562,-18.60369 -3.870103,-27.93057 -0.09764,-3.98477 0.0054,-9.33226 4.968334,-10.20413 M 214.43569,236.2227 c 2.87488,-8.49796 5.78668,-16.71014 7.16451,-25.63492 1.4345,-9.29194 1.25292,-18.55371 1.25292,-27.93057 19.58292,0.013 29.53771,20.39106 21.11649,37.11323 -5.58032,11.0809 -17.54386,16.41924 -29.53392,16.45226 m -83.79173,-12.24354 h 0.76522 c 1.13404,-3.33037 2.92172,-6.63558 5.3719,-9.18118 9.97647,-10.36504 28.43132,-7.75541 33.85956,6.12029 2.6456,6.76271 1.07796,14.3252 -2.76832,20.27837 -6.26957,9.70384 -17.99998,15.9718 -26.13265,24.10447 -2.59531,2.59531 -5.99157,8.0941 -9.94788,8.37138 -5.31069,0.37221 -11.43184,-8.78762 -14.92181,-12.19189 -10.92109,-10.65285 -30.657952,-19.63088 -25.728208,-38.26667 5.406862,-20.43939 33.955058,-18.63908 39.502188,0.76523 m -59.303468,8.99105 c 3.951826,-0.52315 4.696684,5.9962 0.758438,6.41966 -3.928579,0.42241 -4.693881,-5.8987 -0.758438,-6.41966"
       id="path40" /><path
       style="fill:#f3f3f3;fill-opacity:1;stroke:none;stroke-width:1.44609"
       d="m 54.121834,121.22508 c -5.793979,0.9239 -9.569387,8.98486 -3.059414,12.10596 4.351356,2.08618 8.638141,-2.07437 13.007291,-2.28621 2.466174,-0.11959 5.201207,1.61151 7.610587,0.93614 3.580144,-1.00354 0.06844,-4.68273 -1.488817,-5.61929 -4.487198,-2.69867 -10.628853,-6.00418 -16.069647,-5.1366"
       id="path39" /><path
       style="fill:#f3f3f3;fill-opacity:1;stroke:none;stroke-width:1.44609"
       d="m 63.6871,92.559095 c -7.621549,1.625996 -11.047847,11.191085 -4.575972,16.434245 6.786259,5.49788 17.034649,2.01247 24.471725,7.25751 3.257947,2.29769 5.75511,5.28318 7.872453,8.63174 0.814752,1.28854 1.758937,3.1454 3.590804,2.80051 2.106927,-0.39668 2.244136,-2.64335 1.925161,-4.33064 -0.694287,-3.67257 -2.194547,-7.4416 -3.989948,-10.71309 C 87.78941,103.17892 76.069986,89.917296 63.6871,92.559095"
       id="path38" /><path
       style="fill:#f3f3f3;fill-opacity:1;stroke:none;stroke-width:1.44609"
       d="m 78.991525,60.391174 c -9.026097,1.074831 -13.021861,10.998467 -7.449686,18.195536 5.932696,7.662721 17.954082,7.727642 24.828065,14.987062 3.437483,3.630229 4.917136,7.724318 6.904996,12.176818 0.60423,1.35335 1.6189,2.52552 3.2575,2.16844 2.02058,-0.44032 2.21454,-2.77312 2.06746,-4.46232 -0.36285,-4.16774 -0.86619,-8.141155 -1.75806,-12.243546 C 104.795,81.798313 99.61175,73.024961 92.765509,66.349078 89.300271,62.970058 84.060661,59.787552 78.991525,60.391174"
       id="path36" /><path
       style="fill:#0883d5;fill-opacity:1;stroke:none;stroke-width:1.44609"
       d="m 112.66126,155.10913 h -1.53044 c 2.9184,3.19506 8.98404,4.64779 13.00876,5.99425 13.7853,4.61185 29.10243,5.43022 43.235,1.8971 5.60764,-1.40191 10.87112,-3.66714 15.68703,-6.87933 0.92322,-0.61579 4.65845,-2.70129 3.75881,-4.20958 -0.68255,-1.1443 -3.3294,0.34124 -4.14142,0.68166 -4.1419,1.73646 -8.23143,3.42143 -12.62615,4.42896 -3.36998,-14.56644 -5.58702,-31.87668 5.84987,-43.96449 6.66891,-7.04846 17.72144,-4.07454 26.28942,-4.6613 13.80057,-0.94508 28.67612,-6.22134 37.70102,-17.183236 6.78285,-8.238622 11.45709,-19.377743 9.90361,-30.22624 -0.38255,-2.671455 -0.65144,-9.099987 -3.99262,-9.818876 -2.96612,-0.638183 -4.78109,4.24099 -6.53331,5.926354 -3.36992,3.241309 -8.0245,4.437878 -12.59162,3.724546 -5.60639,-0.875656 -10.65954,-3.820058 -16.06965,-5.408812 -11.01184,-3.233812 -24.80717,-3.343265 -35.20017,2.133293 -3.74743,-11.320945 -17.70505,-19.65912 -28.31319,-23.309123 -5.64156,-1.941124 -12.09106,-2.819209 -16.83338,-6.713411 -4.93836,-4.05515 -4.40323,-8.04949 -5.44542,-13.589171 -0.25445,-1.352541 -1.19391,-2.202369 -2.59235,-2.21979 -2.38378,-0.0297 -4.88741,2.22731 -6.48785,3.778864 -4.6832,4.540185 -8.16567,10.875236 -9.7799,17.182939 -4.55866,17.813159 3.64725,35.591126 17.03444,47.334195 4.30988,3.780569 9.07349,6.819828 13.77397,10.067161 2.65427,1.833697 5.58177,4.217731 6.03999,7.642457 0.84381,6.30655 -6.23909,13.29756 -9.59449,17.98269 -6.17266,8.6189 -12.23114,17.39162 -16.4487,27.16536 -1.6564,3.83853 -3.7341,8.03296 -4.10126,12.24353 m 1.91305,-118.007628 c 1.64809,-0.03802 2.75964,1.546837 3.44941,2.842141 1.97964,3.717564 3.66917,7.35122 6.27853,10.712794 5.44778,7.018234 12.42616,12.638084 20.4983,16.334163 3.17863,1.455433 7.42289,1.714462 10.31366,3.564837 2.2007,1.408658 2.5361,4.763016 -0.3717,5.569688 -3.34361,0.92757 -8.39737,-1.143207 -11.4724,-2.359416 -10.50162,-4.153466 -19.75039,-11.37419 -26.01605,-20.813608 -2.2423,-3.378108 -4.85512,-7.412217 -5.56025,-11.478318 -0.33719,-1.944394 0.57588,-4.31913 2.8805,-4.372281 m 73.84385,30.899943 c 7.01503,-1.180526 9.57466,9.791741 2.29566,10.976446 -7.23256,1.17714 -9.62605,-9.742839 -2.29566,-10.976446"
       id="path8" /><path
       id="path42"
       style="fill:#ff0000;stroke-width:0.528275"
       d="m 109.18932,208.2914 c -4.13341,0.14186 -8.24961,1.54554 -11.486325,4.14536 -1.818793,1.46433 -3.368807,3.25505 -4.622744,5.22163 -1.643214,2.5796 -2.54065,5.58005 -2.83638,8.61093 -0.32698,3.17435 -0.205222,6.45967 0.894792,9.48428 1.234347,3.46042 3.537741,6.41028 6.026508,9.06185 3.231069,3.40412 6.819589,6.44368 10.438599,9.42321 3.03167,2.44126 5.95491,5.04769 8.75839,7.72066 1.30741,1.25379 2.58472,2.51275 3.81659,3.85594 1.94254,2.08806 3.95559,4.12045 6.14585,5.95066 1.03064,0.8356 2.19004,1.52878 3.43718,1.98687 1.20429,0.45249 2.57834,0.42279 3.7499,-0.11641 1.6867,-0.76562 3.02708,-2.09211 4.32166,-3.38298 1.36347,-1.38541 2.61205,-2.88084 4.03217,-4.21111 3.49417,-3.35816 7.19048,-6.50049 10.98851,-9.50835 3.61279,-2.92305 7.19855,-5.90069 10.44712,-9.23113 2.53963,-2.59832 4.79875,-5.50704 6.40531,-8.77855 0.88627,-1.84875 1.9433,-3.68376 2.21275,-5.74935 0.22337,-1.83841 0.13955,-3.69532 0.14626,-5.54277 -0.035,-2.20718 -0.0824,-4.48767 -0.96427,-6.55023 -1.07761,-2.62401 -2.88982,-4.88176 -4.92283,-6.83149 -1.86897,-1.77334 -4.01006,-3.28914 -6.40306,-4.26782 -1.3815,-0.62804 -2.87031,-1.0169 -4.38743,-1.10094 -2.02453,-0.12465 -4.05585,-0.0962 -6.08296,-0.0628 -1.55617,0.0294 -3.13501,0.2041 -4.58062,0.81557 -1.99419,0.83124 -3.92689,1.84486 -5.62925,3.18548 -2.79629,2.17904 -5.1654,4.96173 -6.66654,8.18629 -0.37921,0.86109 -0.7736,1.72 -1.28391,2.51281 -0.98218,-1.44415 -1.53355,-3.12537 -2.48267,-4.58958 -2.68517,-4.38872 -7.04919,-7.66279 -11.94321,-9.19842 -2.42609,-0.77215 -4.98453,-1.12867 -7.52939,-1.03966 z" /></g></svg>
