<?xml version="1.0" encoding="UTF-8" standalone="no"?>
<!-- Created with Inkscape (http://www.inkscape.org/) -->

<svg
   width="300mm"
   height="300mm"
   viewBox="0 0 300 300"
   version="1.1"
   id="svg1"
   xml:space="preserve"
   inkscape:version="1.3.2 (091e20e, 2023-11-25, custom)"
   sodipodi:docname="whale_cup.svg"
   inkscape:export-filename="nimib_logo.svg"
   inkscape:export-xdpi="86.699997"
   inkscape:export-ydpi="86.699997"
   xmlns:inkscape="http://www.inkscape.org/namespaces/inkscape"
   xmlns:sodipodi="http://sodipodi.sourceforge.net/DTD/sodipodi-0.dtd"
   xmlns="http://www.w3.org/2000/svg"
   xmlns:svg="http://www.w3.org/2000/svg"><sodipodi:namedview
     id="namedview1"
     pagecolor="#ffffff"
     bordercolor="#000000"
     borderopacity="0.25"
     inkscape:showpageshadow="2"
     inkscape:pageopacity="0.0"
     inkscape:pagecheckerboard="0"
     inkscape:deskcolor="#d1d1d1"
     inkscape:document-units="mm"
     inkscape:zoom="0.53837445"
     inkscape:cx="356.62911"
     inkscape:cy="461.57465"
     inkscape:window-width="1920"
     inkscape:window-height="1009"
     inkscape:window-x="-8"
     inkscape:window-y="-8"
     inkscape:window-maximized="1"
     inkscape:current-layer="layer1"
     inkscape:export-bgcolor="#ffffff00" /><defs
     id="defs1" /><g
     inkscape:label="Layer 1"
     inkscape:groupmode="layer"
     id="layer1"><g
       id="g1"
       transform="matrix(1.4460875,0,0,1.4460875,-16.478846,-54.7153)"><path
         style="fill:#030f12;stroke:none"
         d="m 39.561443,150.65427 c 7.482594,-8e-4 14.302381,-0.6516 21.695832,1.2923 9.845991,2.58873 18.543853,7.90981 28.045832,11.39362 12.369253,4.53508 25.682103,5.86976 38.629163,3.18827 9.81965,-2.03379 17.11352,-6.18169 24.87083,-12.35131 1.8556,-1.47581 4.28693,-1.80635 5.93782,0.20907 2.7428,3.3484 -1.1422,6.40619 -3.55657,8.36988 -6.33183,5.14991 -13.85996,8.49317 -21.69583,10.61232 -14.6151,3.95257 -30.23076,3.06548 -44.449996,-1.99519 -8.076396,-2.87442 -15.560411,-7.10146 -23.547915,-10.18565 -6.195948,-2.39241 -12.463645,-3.13554 -19.049999,-3.12497 -1.435669,0.002 -5.636377,-0.21939 -6.607232,0.98994 -0.741694,0.92386 -0.271935,3.43563 -0.271935,4.56631 0,4.07397 0.06995,8.11279 0.254172,12.17083 0.707373,15.58225 6.745062,30.45056 16.415595,42.59791 3.59135,4.51116 8.816031,7.87875 12.169815,12.43542 -3.079358,-0.91022 -7.110402,-0.26458 -10.318749,-0.26458 -6.564401,0 -13.296741,-0.4356 -19.843749,0.0237 -2.802001,0.19658 -5.706665,3.16877 -2.820387,5.62445 1.982482,1.68672 7.221886,0.70188 9.699553,0.70188 h 26.722915 87.312492 20.90208 c 2.15606,0 5.86597,0.72011 7.09639,-1.59894 3.03319,-5.71686 -7.63319,-4.75106 -10.27139,-4.75106 h -39.15833 v -0.26459 c 4.32491,-2.01402 8.18169,-7.19941 11.11231,-10.84791 1.13302,-1.41056 2.42272,-3.86362 4.01487,-4.75516 1.09933,-0.61557 2.96658,-0.27193 4.1874,-0.27193 2.9313,0 5.81937,0.0315 8.73125,-0.34012 9.66684,-1.23381 18.50711,-6.18593 24.15098,-14.21196 10.24928,-14.57527 7.77382,-36.76184 -8.80514,-45.69104 -4.77245,-2.57038 -10.24003,-3.52088 -15.61042,-3.52146 v -7.9375 c 0,-0.87468 0.25962,-2.33149 -0.42423,-3.01535 -0.64184,-0.64184 -1.93033,-0.42418 -2.75077,-0.42423 -2.47459,-1.6e-4 -5.22799,-0.34108 -7.67292,0.0392 -1.53697,0.23906 -2.66731,1.83444 -3.70416,2.87123 -2.14406,2.14392 -4.39392,4.15 -6.87917,5.89473 -6.85157,4.81004 -14.48234,7.49515 -22.75416,8.58284 -8.9927,1.18247 -18.44058,-0.0412 -26.9875,-3.01984 -10.701704,-3.72965 -20.431172,-9.78598 -31.485415,-12.54954 -5.634733,-1.40869 -11.150554,-1.81861 -16.933332,-1.81861 -1.434627,0 -4.757437,-0.61338 -5.925769,0.31195 -0.705746,0.55896 -0.424231,2.07712 -0.424231,2.86305 v 8.20208 m 12.7,13.58113 c 2.155044,-0.37859 4.315466,0.95166 4.879482,3.08762 0.863077,3.26855 0.361541,6.96639 0.72066,10.31875 0.470272,4.38993 1.728851,8.6168 2.354507,12.96458 0.313935,2.18156 -0.547188,4.64119 -2.927566,5.18735 -3.612667,0.82891 -5.081489,-2.28426 -5.786533,-5.18735 -1.523615,-6.27358 -2.518217,-12.86484 -2.676258,-19.31458 -0.06752,-2.75555 0.0037,-6.45345 3.435708,-7.05637 m 107.420827,36.95429 c 1.98804,-5.87652 4.00161,-11.55542 4.95441,-17.72709 0.99199,-6.42557 0.86642,-12.83028 0.86642,-19.31458 13.542,0.009 20.42595,14.10085 14.6025,25.66458 -3.85891,7.66268 -12.13195,11.35425 -20.42333,11.37709 m -57.94375,-8.46667 h 0.52917 c 0.78421,-2.30302 2.02043,-4.58864 3.71478,-6.34898 6.89894,-7.16764 19.66086,-5.36303 23.4146,4.23231 1.82949,4.67656 0.74543,9.90618 -1.91435,14.02292 -4.33554,6.71041 -12.44737,11.04484 -18.07128,16.66875 -1.79471,1.79471 -4.1433,5.59724 -6.87917,5.78899 -3.672455,0.25739 -7.90536,-6.07683 -10.318746,-8.43095 -7.552163,-7.36667 -21.200619,-13.57517 -17.791597,-26.46221 3.738959,-14.13427 23.480639,-12.88932 27.316593,0.52917 m -41.009596,6.2175 c 2.732771,-0.36177 3.247856,4.1465 0.524476,4.43933 -2.716695,0.29211 -3.245918,-4.07907 -0.524476,-4.43933"
         id="path40" /><path
         style="fill:#030f12;stroke:none"
         d="m 48.821859,121.66648 c -4.006659,0.6389 -6.617433,6.21322 -2.115649,8.37153 3.009054,1.44264 5.973456,-1.43447 8.994816,-1.58096 1.705411,-0.0827 3.596744,1.11439 5.262881,0.64736 2.475745,-0.69397 0.04733,-3.23821 -1.029548,-3.88586 -3.102992,-1.86619 -7.350076,-4.15202 -11.1125,-3.55207"
         id="path39" /><path
         style="fill:#030f12;stroke:none"
         d="m 55.436442,101.84335 c -5.270462,1.12441 -7.639819,7.73887 -3.164381,11.36463 4.692841,3.8019 11.779819,1.39166 16.922714,5.01872 2.252939,1.5889 3.97978,3.65343 5.443967,5.96903 0.563418,0.89105 1.216342,2.17511 2.483117,1.93661 1.456984,-0.27431 1.551867,-1.82793 1.331289,-2.99473 -0.480114,-2.53966 -1.517575,-5.14602 -2.759133,-7.40833 -3.590317,-6.5421 -11.694546,-15.71279 -20.257573,-13.88593"
         id="path38" /><path
         style="fill:#030f12;stroke:none"
         d="m 66.019775,79.598554 c -6.241737,0.743268 -9.004892,7.605672 -5.151615,12.582597 4.102584,5.298933 12.415626,5.343827 17.16913,10.363869 2.377092,2.51038 3.400301,5.34153 4.774951,8.42053 0.417836,0.93587 1.119505,1.74645 2.252632,1.49952 1.397274,-0.30449 1.531399,-1.91767 1.429693,-3.08579 -0.250921,-2.88208 -0.598994,-5.62978 -1.215736,-8.46667 -1.41541,-6.510568 -4.999735,-12.577526 -9.734055,-17.19404 -2.396285,-2.336663 -6.019586,-4.537433 -9.525,-4.120016"
         id="path36" /><path
         style="fill:#0883d5;fill-opacity:1;stroke:none"
         d="m 89.303107,145.09802 h -1.058333 c 2.018134,2.20945 6.212653,3.21404 8.995833,4.14515 9.532823,3.18919 20.124943,3.75511 29.897913,1.31188 3.8778,-0.96945 7.51761,-2.5359 10.84791,-4.7572 0.63843,-0.42583 3.22142,-1.868 2.5993,-2.91101 -0.472,-0.79131 -2.30235,0.23597 -2.86388,0.47138 -2.86421,1.2008 -5.69221,2.36599 -8.73125,3.06272 -2.33041,-10.073 -3.86354,-22.0434 4.04531,-30.40237 4.61169,-4.87416 12.25475,-2.81763 18.17969,-3.22339 9.54338,-0.65354 19.83014,-4.30219 26.07105,-11.88257 4.69048,-5.697181 7.92282,-13.400118 6.84855,-20.902082 -0.26454,-1.847368 -0.45048,-6.292833 -2.76098,-6.78996 -2.05113,-0.441317 -3.30622,2.932734 -4.51792,4.098199 -2.33037,2.241433 -5.54911,3.068886 -8.70737,2.575602 -3.87694,-0.605535 -7.3713,-2.641651 -11.1125,-3.740308 -7.61492,-2.236249 -17.15468,-2.311938 -24.34166,1.475217 -2.59143,-7.828672 -12.24342,-13.594696 -19.57917,-16.11875 -3.90126,-1.342328 -8.36122,-1.949542 -11.64064,-4.642465 -3.414975,-2.804222 -3.044923,-5.566392 -3.765616,-9.397198 -0.175958,-0.935311 -0.825619,-1.522985 -1.792671,-1.535032 -1.64843,-0.02054 -3.379744,1.540232 -4.486483,2.613164 -3.23853,3.139634 -5.646732,7.520455 -6.763007,11.882365 -3.152408,12.318175 2.522148,24.612014 11.779674,32.732594 2.980373,2.614343 6.274513,4.716055 9.524993,6.961654 1.83548,1.26804 3.85991,2.91665 4.17678,5.28492 0.58351,4.36111 -4.31446,9.19554 -6.63479,12.43541 -4.268527,5.96015 -8.458096,12.02667 -11.374625,18.78542 -1.145433,2.65442 -2.582207,5.55496 -2.836108,8.46666 m 1.322917,-81.604765 c 1.139683,-0.02629 1.908346,1.06967 2.385335,1.9654 1.368966,2.570774 2.537313,5.083524 4.341741,7.408123 3.76725,4.853257 8.59295,8.739502 14.175,11.295418 2.19809,1.006463 5.13309,1.185587 7.13212,2.46516 1.52183,0.974117 1.75376,3.293726 -0.25704,3.851557 -2.31218,0.641434 -5.80696,-0.790552 -7.93341,-1.631586 -7.26209,-2.872209 -13.657811,-7.865492 -17.990645,-14.393049 -1.5506,-2.336033 -3.357418,-5.125704 -3.845034,-7.937499 -0.233173,-1.344589 0.39824,-2.986769 1.991933,-3.023524 M 141.6906,84.861217 c 4.85104,-0.816359 6.62108,6.771195 1.5875,7.590444 -5.00147,0.814017 -6.65662,-6.737379 -1.5875,-7.590444"
         id="path8" /><path
         id="path42"
         style="fill:#ff0000;stroke-width:0.365313"
         d="m 86.902188,181.87468 c -2.858344,0.0981 -5.704781,1.06877 -7.943037,2.8666 -1.257734,1.01262 -2.329601,2.25094 -3.196725,3.61087 -1.136317,1.78385 -1.756913,3.85872 -1.961417,5.95464 -0.226113,2.19513 -0.141915,4.467 0.618768,6.55858 0.853577,2.39295 2.446422,4.43284 4.167457,6.26646 2.234353,2.35402 4.715891,4.45594 7.218513,6.51635 2.096461,1.68818 4.117946,3.49058 6.056612,5.339 0.904097,0.86702 1.787387,1.73762 2.639253,2.66646 1.343302,1.44394 2.735368,2.84938 4.249983,4.11501 0.712706,0.57783 1.514455,1.05718 2.376885,1.37396 0.83279,0.31291 1.78297,0.29237 2.59313,-0.0805 1.16639,-0.52944 2.09329,-1.44674 2.98852,-2.3394 0.94287,-0.95804 1.80629,-1.99216 2.78833,-2.91207 2.41629,-2.32224 4.97237,-4.49523 7.59879,-6.57523 2.49832,-2.02135 4.97795,-4.08045 7.2244,-6.38352 1.75621,-1.79679 3.31844,-3.80823 4.42941,-6.07055 0.61287,-1.27845 1.34383,-2.5474 1.53016,-3.9758 0.15447,-1.2713 0.0965,-2.55539 0.10114,-3.83294 -0.0242,-1.52631 -0.057,-3.10332 -0.66681,-4.52962 -0.74519,-1.81456 -1.99837,-3.37584 -3.40424,-4.72412 -1.29243,-1.2263 -2.77304,-2.27451 -4.42785,-2.95129 -0.95534,-0.4343 -1.98488,-0.70321 -3.034,-0.76132 -1.40001,-0.0862 -2.80471,-0.0665 -4.2065,-0.0434 -1.07612,0.0203 -2.16792,0.14114 -3.16759,0.56398 -1.37903,0.57482 -2.71553,1.27576 -3.89275,2.20283 -1.93369,1.50685 -3.57198,3.43114 -4.61005,5.66099 -0.26223,0.59546 -0.53496,1.18942 -0.88785,1.73766 -0.6792,-0.99866 -1.06048,-2.16126 -1.71682,-3.17379 -1.856851,-3.03489 -4.874664,-5.29898 -8.258984,-6.3609 -1.677689,-0.53396 -3.446907,-0.7805 -5.206728,-0.71895 z" /></g></g></svg>
